<?xml version="1.0" encoding="UTF-8"?>
<svg id="Layer_1" data-name="Layer 1" xmlns="http://www.w3.org/2000/svg" viewBox="0 0 1080 1080">
  <defs>
    <style>
      .cls-1 {
        fill: #fff;
      }
    </style>
  </defs>
  <path class="cls-1" d="m461.75,872.39c-1.55-4.16-3.25-8.28-4.67-12.48-2.62-7.75-4.34-15.73-5.86-23.75-2.76-14.54-4.61-29.21-5.95-43.94-.88-9.67-1.64-19.35-2.13-29.05-.61-11.96-.9-23.94-1.27-35.91-.13-4.17-.11-8.35-.14-12.52-.1-16.61.12-33.22.86-49.82.57-12.78,1.27-25.56,2.47-38.3.77-8.13,1.48-16.27,2.41-24.38,1.12-9.73,2.5-19.43,4.14-29.09,1.94-11.45,4.25-22.83,7.29-34.04,1.18-4.37,2.27-8.78,4.19-12.92.45-.98.71-2.06.92-3.12.92-4.7-.86-8.65-4.95-11.13-1.55-.94-3.09-1.91-4.63-2.87-5.24-3.26-10.45-6.56-15.73-9.75-3.92-2.37-4.23-2.3-8.7-.98-23.37,6.91-47.08,12.07-71.42,14.07-7.7.63-15.4.92-23.12.56-2.56-.12-5.03-.41-7.45-1.34-4.47-1.71-9.66,1.35-10.44,6.24-.61,3.81-.71,7.59.15,11.36,1.26,5.51,4.26,9.8,9.3,12.46,1.75.92,3.66,1.61,5.57,2.13,4.58,1.23,9.3,1.58,14.03,1.62,12.31.09,24.43-1.57,36.45-4.08,1.14-.24,2.29-.45,3.4-.66.12.33.25.5.24.67-.15,4.9-.29,9.8-.49,14.69-.02.48-.37.99-.69,1.39-.34.42-.83.7-1.24,1.06-4.27,3.8-8.66,7.48-12.79,11.42-11,10.48-20.91,21.94-30.37,33.81-14.1,17.69-27.04,36.21-39.19,55.28-5.9,9.26-11.55,18.68-17.32,28.01-.45.73-.7,1.63-1.59,2.11-.04-.28-.12-.47-.09-.64,2.83-15.54,4.77-31.21,6.27-46.92,1.09-11.47,1.98-22.96,2.74-34.46.7-10.68,1.22-21.38,1.62-32.08.71-18.87,1.07-37.74,1.09-56.62.03-18.52-.26-37.03-.91-55.53-.37-10.52-.82-21.04-1.27-31.56-.15-3.54-.37-7.07-.6-10.6-.45-6.79-.91-13.58-1.4-20.37-.4-5.52-.76-11.05-1.29-16.55-.95-9.93-1.94-19.87-3.04-29.78-.88-7.93-1.85-15.86-2.95-23.77-1.63-11.68-3.52-23.32-5.79-34.89-3.04-15.5-6.65-30.85-11.74-45.82-.17-.49-.19-1.02-.3-1.62,2.49-1.49,4.9-2.94,7.31-4.37.22-.13.49-.16.91-.29.35.85.72,1.65,1.02,2.48,10.42,28.24,24.24,54.71,41.64,79.28,7.2,10.16,14.95,19.87,23.74,28.72,6.42,6.46,13.3,12.35,21.11,17.09,4.68,2.83,9.58,5.15,14.85,6.65,5.93,1.69,11.94,2.24,18.04,1.13,6.97-1.28,13-4.45,18.17-9.28,4.3-4.02,7.63-8.75,9.94-14.16,2.54-5.92-2.5-11.88-8.46-10.99-2.68.4-5.08-.03-7.36-1.18-2.26-1.14-4.46-2.44-6.55-3.86-3.61-2.45-6.85-5.38-10-8.4-6.04-5.78-11.58-12.03-16.92-18.46-13.02-15.69-24.62-32.34-34.09-50.43-8.33-15.9-14.9-32.47-18.57-50.1-1.56-7.48-2.64-15.01-2.49-22.68,0-.45.03-.91-.03-1.36-.27-1.99-1.91-3.46-3.93-3.41-.7.02-1.45.18-2.09.49-2.54,1.21-5.06,2.46-7.54,3.77-.62.33-1.26.82-1.61,1.41-.65,1.08-1.64,1.67-2.64,2.29-9.79,6.08-19.53,12.25-29.39,18.2-23.52,14.2-48.16,26.08-74.09,35.2-4.62,1.62-9.29,3.08-13.97,4.53-2.19.68-3.91,1.88-5.03,3.88-1.13,2.02-1.18,4.16-.62,6.34.41,1.58.94,3.13,1.4,4.69,7,24.26,12.21,48.91,16.36,73.8,2.6,15.57,4.76,31.21,6.48,46.9,1.23,11.27,2.34,22.56,3.26,33.87.9,11.03,1.64,22.08,2.17,33.14.6,12.6.98,25.21,1.28,37.82.24,10.07.34,20.15.27,30.22-.12,17.24-.52,34.48-1.43,51.71-.36,6.8-.7,13.6-1.23,20.38-.73,9.5-1.57,18.99-2.48,28.47-.69,7.22-1.47,14.44-2.39,21.64-1.46,11.43-3.16,22.82-5.21,34.16-2.52,13.93-5.49,27.76-9.35,41.38-3.56,12.59-7.89,24.9-13.64,36.68-2.71,5.55-5.76,10.91-9.44,15.89-2.6,3.52-5.45,6.8-8.98,9.43-1.27.95-2.2,2.16-2.75,3.64-.23.63-.48,1.17-1.14,1.42v2.72c.91.32.98,1.22,1.33,1.93,1.66,3.38,4.8,5.07,8.47,4.6,1.58-.2,2.89-1.01,4.21-1.81,12.53-7.62,25.74-13.76,39.64-18.43,17.21-5.78,34.86-9.26,52.98-10.37,7.72-.47,15.42-.6,23.13.04.72.06,1.45.09,2.18.11,3.65.09,6.24-1.55,7.83-4.81.24-.49.45-.99.68-1.48,3.12-6.85,6.21-13.72,9.36-20.56,8.89-19.28,18.06-38.42,28.24-57.06,10.41-19.06,21.9-37.44,35.16-54.66,5.76-7.48,11.82-14.72,18.2-21.68.44-.49.78-1.22,1.75-1.18,0,.68.04,1.31,0,1.93-.17,2.44-.37,4.89-.57,7.33-.42,5.15-.83,10.31-1.29,15.46-.64,7.32-1.31,14.64-1.97,21.96-.43,4.79-.86,9.58-1.3,14.37-.65,7.05-1.32,14.09-1.98,21.14-.43,4.61-.85,9.22-1.28,13.82-.66,7.14-1.34,14.27-1.99,21.41-.43,4.7-.84,9.4-1.26,14.1-.5,5.6-1,11.21-1.48,16.81-.43,5.06-.83,10.13-1.24,15.19-.48,6.06-.97,12.12-1.4,18.18-.22,3.17-.41,6.32-1.07,9.45-.92,4.39.59,7.33,4.51,9.49,2.15,1.18,4.31,2.34,6.4,3.61,22.79,13.84,41.49,31.93,56.19,54.16,4.86,7.36,9.09,15.07,12.74,23.09,1.21,2.66,2.67,5.16,4.6,7.36,1.53,1.74,3.33,3.08,5.62,3.64.69.17,1.46.31,2.14.19,4.32-.75,7.43-4.54,7.52-8.18.05-2.12-.24-4.17-.94-6.15-1.05-2.99-2.16-5.97-3.27-8.94Z"/>
  <path class="cls-1" d="m645.52,634.48c.13.07.29.11.44.13.46.07.92.12,1.38.18,1.25.15,2.49.33,3.71.6.83.18,1.64.42,2.42.77,1.33.59,2.3,1.53,2.93,2.84.15.31.28.64.4.96.32.85.52,1.74.68,2.63.37,1.98.54,3.98.68,5.98.12,1.75.19,3.51.28,5.26.04.77.06,1.54.11,2.31.01.19.03.39.09.57.13.36.52.58.87.53.38-.05.69-.33.75-.7.02-.11.02-.23.02-.35.06-1.27.13-2.54.18-3.82.1-2.3.24-4.59.48-6.87.14-1.31.32-2.61.61-3.89.21-.92.49-1.83.91-2.68.61-1.24,1.54-2.16,2.8-2.74.3-.14.6-.26.91-.37.93-.33,1.89-.54,2.86-.69,1.18-.18,2.37-.33,3.55-.49.19-.03.39-.05.57-.1.35-.1.56-.42.57-.79,0-.37-.2-.69-.54-.81-.14-.05-.3-.08-.45-.1-.36-.05-.73-.09-1.09-.13-1.25-.14-2.49-.33-3.71-.59-.96-.21-1.91-.48-2.8-.91-1.13-.55-1.99-1.38-2.57-2.5-.28-.53-.5-1.09-.68-1.66-.4-1.26-.61-2.55-.79-3.85-.3-2.3-.44-4.61-.57-6.92-.07-1.21-.11-2.43-.16-3.65-.02-.5-.06-1-.07-1.5-.01-.36-.15-.63-.47-.8-.05-.03-.08-.07-.12-.11h-.46c-.51.22-.68.62-.69,1.15,0,.81-.07,1.62-.1,2.43-.12,2.87-.27,5.75-.59,8.61-.14,1.23-.32,2.45-.61,3.65-.23.96-.53,1.89-1.01,2.76-.57,1.03-1.37,1.81-2.42,2.34-.29.15-.6.27-.9.39-.83.32-1.7.52-2.57.69-1.37.26-2.74.44-4.12.59-.17.02-.35.05-.51.09-.35.1-.55.36-.59.71-.05.36.11.65.42.83Z"/>
  <path class="cls-1" d="m928.38,527.5c-2.73,1.63-26.24,63.15-36.45,95.46-14.19,44.82-22.44,62.38-31.99,68.14-6.63,4-10.19,2.56-14.11-5.67-6.33-13.32-11.62-45.52-15.67-95.13,0-.23-.01-.46-.06-.69-1.35-16.66-2.56-35.28-3.63-55.8-2.18-41.87-2.24-48.3-.45-49.36.68-.4,6.51-2.58,12.97-4.84,15.21-5.33,40.38-19.96,50.08-29.08,10.92-10.3,21.21-28.07,18.68-32.33-1.51-2.54-3.67-1.29-3.74,2.15-.09,3.85-7.48,16.03-14.55,23.82-12.99,14.36-35.74,24.89-52.33,31.76-2.75,1.07-5.55,1.98-8.41,2.75l-4.25,1.21-.09-15.11c-.05-8.31.36-26.62.94-40.69,1.3-32.79.72-44.2-2.34-46.04-2.93-1.77-5.26-1.29-6.87,1.37-2.21,3.67-7.02,82.12-6,98.02.15,2.35-.19,4.89-.78,5.63-.58.72-6.94,2.66-14.13,4.31-35.94,8.21-59.56,16.67-79.18,28.41-21.81,13.01-32.44,25.71-34.49,41.17-1.16,8.83.1,16.71,2.77,17.37,1.11.29,1.46-1.76,1.06-6.41-1.57-19.1,8.39-33.63,33.03-48.16,20.05-11.84,39.84-19.02,76.29-27.63l15.59-3.67.26,12.99c.3,14.51,4.38,72.17,6.94,98.82-2.89,3.31-6.45,7.44-10.87,12.61-12.17,14.21-26.88,32.01-32.72,39.6-5.83,7.55-10.94,13.65-11.34,13.55-.4-.1-3.25-7.79-6.34-17.09-4.97-14.99-5.5-17.74-4.8-24.31.43-4.08.45-8.6,0-10.04-1.4-4.73-3.93-6.24-6.27-4.67-1.41.93-2.75,2.96-3.74,6.05-2.7,8.34-2.13,18.03,2.06,31.79-2.72,4.5-6.17,10.32-9.85,16.61-15.69,26.9-32.95,54.35-39.29,62.57-9.21,11.92-16.61,15.59-21.12,10.48-5.22-5.95-6.9-18.44-5.65-42.37.76-14.41-.15-18.96-3.97-19.93-1.15-.4-2.43-.18-3.38.58-1.55,1.31-2.63,4.42-3.78,10.08-.5,2.51-.89,5.11-1.16,7.75-.47.28-1.05.76-1.75,1.46-5.49,5.38-21.95,38.94-41.74,85.12-15.3,35.65-23.25,54.21-31.74,66.48-13.38,19.33-27.22,35.69-39.09,16.94-8.17-12.91-14.89-36.55-18.75-70.21l-1.79-15.59,5.02-10.48c15.13-31.59,28.03-90.96,32.17-148.12,4.62-63.52,1.64-97.89-9.19-105.91-2.97-2.2-5.64-2.57-8.26-.99-2.59,1.62-5.16,5.17-7.88,10.84-18.56,38.62-32.17,144.8-28.47,221.96,2.24,46.88,7.49,84.55,18.29,111.94,12.44,31.58,32.33,39.21,53.06,12.03,11.15-14.64,18.42-30.69,40.81-84.59,14.46-34.89,25.89-59.83,35.37-77.22,1.45-2.67,2.62-5.02,3.49-7.01-.49,14.34,2.12,28.96,7.16,37.49,4.39,7.4,8.54,10.39,14.75,10.53,6,.15,13.32-5.14,20.45-14.79,8.77-11.89,35.86-58.32,47.81-80.96.7,2.07,1.47,4.22,2.32,6.47,7.62,20.23,7.58,19.51,1.93,29.09-5.83,9.93-10.98,23.18-12.12,31.19-1.9,13.51,2.53,22.15,11.28,22.01,1.47-.04,4.25-1.33,6.18-2.89,11.28-9.09,15.44-29.01,11.36-54.42-.94-5.9-1.41-11.36-1.01-12.15,1.66-3.38,33.9-43.39,53.1-66.28.02.18.04.36.06.53,4.91,46.21,12.7,76.6,22.78,88.92,3.61,4.41,10.42,7.54,14.87,6.86,4.49-.68,10.91-5.1,15.14-10.38,6.9-8.66,15.09-30.05,27.16-70.92,8.34-27.72,18.09-55,29.22-81.72,3.32-7.98,3.82-12.86,1.14-11.27Zm-410.99,180.4h0c.15-42.93,3.58-90.26,9.24-127.4,4.62-30.4,13.07-60.62,17.48-63.42.24-.17.54-.23.83-.18,3.61.9,8.43,18.07,9.54,34.05,1.87,26.29-1.26,76.51-7.31,117.61-2.88,19.41-14.54,65.94-20.49,81.59-2.46,6.48-4.99,12.7-5.66,13.82-1.75,2.98-3.72-27.67-3.63-56.07Zm239.06,6.32c-.69,4.43-2.1,8.71-4.17,12.68-5.22,9.26-8.14,10.05-10.74,2.94-1.96-5.36,1.46-20.06,7.48-32.1,2.72-5.44,5.42-9.78,5.99-9.64,1.41.36,2.41,18,1.46,26.13Z"/>
</svg>